<svg width="921" height="568" viewBox="0 0 921 568" fill="none" xmlns="http://www.w3.org/2000/svg">
<rect width="921" height="568" fill="#E5E5E5"/>
<g id="undraw_Pitching_re_fpgk 1" clip-path="url(#clip0)">
<path id="Vector" d="M69.4 554.299H81.66L87.492 507.011L69.398 507.012L69.4 554.299Z" fill="#FFB6B6"/>
<path id="Vector_2" d="M66.2725 550.297L90.4165 550.296H90.4175C94.4981 550.296 98.4116 551.917 101.297 554.802C104.183 557.688 105.804 561.601 105.804 565.682V566.182L66.2732 566.183L66.2725 550.297Z" fill="#2F2E41"/>
<path id="Vector_3" d="M111.4 554.299H123.66L129.492 507.011L111.398 507.012L111.4 554.299Z" fill="#FFB6B6"/>
<path id="Vector_4" d="M108.272 550.297L132.416 550.296H132.417C136.498 550.296 140.412 551.917 143.297 554.802C146.183 557.688 147.804 561.601 147.804 565.682V566.182L108.273 566.183L108.272 550.297Z" fill="#2F2E41"/>
<path id="Vector_5" d="M157.987 348.297L128.038 533.282L108.038 532.282L108.534 362.427L157.987 348.297Z" fill="#2F2E41"/>
<path id="Vector_6" d="M77.2476 291.78L149.913 292.789L157.987 348.297L108.534 371.51L87.0382 528.282L68.0382 527.282L61.0996 333.159L77.2476 291.78Z" fill="#2F2E41"/>
<path id="Vector_7" d="M120.645 148.467C132.908 148.467 142.848 138.526 142.848 126.263C142.848 114.001 132.908 104.06 120.645 104.06C108.382 104.06 98.4417 114.001 98.4417 126.263C98.4417 138.526 108.382 148.467 120.645 148.467Z" fill="#FFB9B9"/>
<path id="Vector_8" d="M131.038 161.282L143.858 177.735L137.802 303.89L90.368 302.881L82.294 192.874L92.386 164.615L96.038 158.282L131.038 161.282Z" fill="#E4E4E4"/>
<path id="Vector_9" d="M72.202 241.317L65.137 254.438L63.118 276.641L67.155 301.872L53.026 325.085L38.897 261.502L54.035 179.753H60.091L72.202 241.317Z" fill="#2F2E41"/>
<path id="Vector_10" d="M101.443 132.015L100.917 140.99C100.917 140.99 94.4047 126.263 93.3955 111.125C92.3862 95.9862 109.543 92.9584 119.636 91.9492C129.728 90.9399 146.885 98.0046 146.885 106.079C146.885 114.153 128.719 112.134 121.654 110.116C114.59 108.097 111.562 125.254 111.562 125.254L107.525 126.264L101.443 132.015Z" fill="#2F2E41"/>
<path id="Vector_11" d="M155.969 239.299L151.932 277.65L160.006 300.863L165.052 323.066C165.052 323.066 165.052 344.26 144.867 345.269C124.682 346.279 66.146 344.26 66.146 344.26C66.146 344.26 58.072 343.251 51.0073 327.103C43.9426 310.955 65.1367 295.817 65.1367 295.817L71.1922 274.622L69.1737 248.382L55.0442 179.753L96.9278 158.055L107.525 261.502L130.233 161.082L137.802 166.633L170.098 179.753L155.969 239.299Z" fill="#2F2E41"/>
<path id="Vector_12" d="M257.738 567.136H0V565.03H258.12L257.738 567.136Z" fill="#3F3D56"/>
<g id="waving">
<path id="Vector_13" d="M519.976 103.799L222 99.9943L222.894 30L520.87 33.805L519.976 103.799Z" fill="#938F8F"/>
<path id="Vector_14" d="M219.726 77.4086C220.783 78.7263 221.537 80.2598 221.937 81.9008C222.337 83.5419 222.372 85.2507 222.04 86.9068C221.708 88.5629 221.017 90.1261 220.016 91.4863C219.014 92.8465 217.727 93.9705 216.244 94.7793L223 135.278L203.499 126.623L200.073 89.4918C198.879 86.9106 198.674 83.9813 199.496 81.2589C200.318 78.5365 202.11 76.2101 204.532 74.7207C206.955 73.2313 209.84 72.6823 212.64 73.1776C215.44 73.673 217.961 75.1784 219.726 77.4086V77.4086Z" fill="#FFB9B9"/>
<path id="Vector_15" d="M137.977 183.306L147.225 176.869L189.574 181.147L199.457 116.822L225.478 105.63L222.66 198.593L134.566 235.585L137.977 183.306Z" fill="#2F2E41"/>
</g>
</g>
<defs>
<clipPath id="clip0">
<rect width="920.297" height="567.136" fill="white"/>
</clipPath>
</defs>
</svg>
